REM DIRINDEX 1\2,1\3
REM DIRNAME cjc080,folder01,folder02
TITLE ""
FILE "ScrambleS_3Part1_Theme051.mp3" MP3
  TRACK 01 AUDIO
    TITLE "3:cjc080_0248"
    INDEX 01 00:00:00
  TRACK 02 AUDIO
    TITLE "0:"
    INDEX 01 00:01:46
  TRACK 03 AUDIO
    TITLE "2:cjc080_0249"
    INDEX 01 00:02:69
  TRACK 04 AUDIO
    TITLE "0:"
    INDEX 01 00:05:57
  TRACK 05 AUDIO
    TITLE "2:cjc080_0250"
    INDEX 01 00:07:02
  TRACK 06 AUDIO
    TITLE "0:"
    INDEX 01 00:11:54
